<svg xmlns="http://www.w3.org/2000/svg" width="512" height="512" viewBox="0 0 512 512">
  <g id="circle_icon" transform="translate(-87 -341)">
    <g id="monero" transform="translate(87 341)">
      <circle id="Ellipse_1" data-name="Ellipse 1" cx="256" cy="256" r="256"/>
      <g id="Group_13" data-name="Group 13">
        <path id="Path_31" data-name="Path 31" d="M245.664,470.669c-.082,0-.163,0-.246-.006-6.794-.329-13.641-.986-20.35-1.954a5,5,0,1,1,1.427-9.9c6.4.922,12.927,1.549,19.406,1.863a5,5,0,0,1-.237,9.994Zm39.848-1.808a5,5,0,0,1-.691-9.952c6.419-.9,12.863-2.126,19.15-3.635A5,5,0,1,1,306.3,465c-6.6,1.582-13.356,2.865-20.09,3.812a4.905,4.905,0,0,1-.7.05Zm-98.493-9.536a5,5,0,0,1-1.643-.279c-6.414-2.231-12.8-4.8-18.971-7.635a5,5,0,0,1,4.174-9.088c5.885,2.7,11.969,5.151,18.082,7.278a5,5,0,0,1-1.642,9.724Zm155.855-7.165a5,5,0,0,1-2.075-9.552c5.888-2.68,11.722-5.68,17.34-8.916a5,5,0,0,1,4.991,8.665c-5.893,3.394-12.012,6.541-18.188,9.352a4.977,4.977,0,0,1-2.068.451ZM133.98,431.838a4.976,4.976,0,0,1-2.9-.934c-5.521-3.95-10.92-8.214-16.047-12.673a5,5,0,0,1,6.562-7.546c4.89,4.253,10.039,8.319,15.3,12.086a5,5,0,0,1-2.914,9.067Zm259.188-11.925a5,5,0,0,1-3.271-8.783c4.9-4.234,9.658-8.753,14.138-13.433a5,5,0,1,1,7.222,6.916c-4.7,4.906-9.685,9.645-14.824,14.084a4.975,4.975,0,0,1-3.265,1.216ZM90.81,390.543a4.993,4.993,0,0,1-3.936-1.912c-4.2-5.345-8.185-10.951-11.853-16.663a5,5,0,1,1,8.415-5.4c3.5,5.447,7.3,10.793,11.3,15.891a5,5,0,0,1-3.929,8.087Zm341.579-15.691a5,5,0,0,1-4.193-7.716c3.519-5.44,6.815-11.112,9.8-16.857a5,5,0,0,1,8.875,4.607c-3.128,6.026-6.586,11.975-10.276,17.68A5,5,0,0,1,432.389,374.852ZM60.966,338.79a5,5,0,0,1-4.645-3.147c-2.519-6.309-4.761-12.814-6.664-19.335a5,5,0,0,1,9.6-2.8c1.814,6.216,3.951,12.416,6.351,18.429a5,5,0,0,1-4.642,6.855Zm396.381-18.211a5,5,0,0,1-4.8-6.418c1.833-6.2,3.387-12.577,4.62-18.937a5,5,0,0,1,9.817,1.9c-1.293,6.672-2.924,13.356-4.848,19.867a5,5,0,0,1-4.793,3.585ZM46.988,280.715a5,5,0,0,1-4.973-4.537c-.621-6.662-.935-13.451-.935-20.179v-.232a5,5,0,1,1,10,0V256c0,6.419.3,12.9.892,19.251a5,5,0,0,1-4.515,5.442c-.157.015-.314.022-.469.022Zm418.932-19.25H465.9a5,5,0,0,1-4.984-5.016V256c0-6.495-.307-13.048-.913-19.478a5,5,0,1,1,9.956-.938c.635,6.74.957,13.609.957,20.416v.48A5,5,0,0,1,465.92,261.465ZM49.882,221.053a5.068,5.068,0,0,1-.951-.091,5,5,0,0,1-3.964-5.855c1.285-6.671,2.909-13.357,4.825-19.872a5,5,0,1,1,9.593,2.822c-1.827,6.209-3.375,12.582-4.6,18.941A5,5,0,0,1,49.882,221.053Zm407.593-19.181a5,5,0,0,1-4.8-3.6c-1.819-6.21-3.963-12.408-6.372-18.421a5,5,0,1,1,9.283-3.717c2.527,6.309,4.776,12.811,6.685,19.328a5,5,0,0,1-4.8,6.406ZM69.458,164.624a5,5,0,0,1-4.437-7.3c3.121-6.028,6.572-11.98,10.257-17.692a5,5,0,1,1,8.4,5.422c-3.513,5.445-6.8,11.121-9.779,16.868a5,5,0,0,1-4.443,2.7ZM432.65,147.539a5,5,0,0,1-4.209-2.294c-3.5-5.443-7.312-10.785-11.32-15.878a5,5,0,0,1,7.857-6.185c4.2,5.34,8.2,10.942,11.871,16.65a5,5,0,0,1-4.2,7.707ZM104.193,116.013a5,5,0,0,1-3.615-8.454c4.692-4.911,9.674-9.655,14.808-14.1a5,5,0,0,1,6.546,7.56c-4.9,4.24-9.648,8.764-14.124,13.449a4.986,4.986,0,0,1-3.615,1.545ZM393.514,102.39a4.976,4.976,0,0,1-3.275-1.224c-4.894-4.247-10.048-8.308-15.317-12.069a5,5,0,1,1,5.809-8.139c5.526,3.944,10.93,8.2,16.061,12.655a5,5,0,0,1-3.278,8.777Zm-242.345-23.3a5,5,0,0,1-2.505-9.331c5.885-3.4,12-6.552,18.178-9.373a5,5,0,0,1,4.153,9.1c-5.889,2.688-11.719,5.695-17.329,8.935a4.975,4.975,0,0,1-2.5.672Zm192.124-9.056a4.981,4.981,0,0,1-2.079-.455c-5.889-2.7-11.976-5.138-18.09-7.257a5,5,0,0,1,3.274-9.449c6.416,2.223,12.8,4.785,18.979,7.614a5,5,0,0,1-2.084,9.547ZM206.632,56.918a5,5,0,0,1-1.168-9.862c6.6-1.59,13.354-2.88,20.085-3.835a5,5,0,0,1,1.4,9.9c-6.418.91-12.86,2.14-19.147,3.655a4.982,4.982,0,0,1-1.174.14Zm79.362-3.711a5.085,5.085,0,0,1-.714-.051c-6.4-.915-12.928-1.535-19.408-1.842a5,5,0,1,1,.473-9.988c6.794.322,13.642.972,20.351,1.931a5,5,0,0,1-.7,9.95Z" fill="#d822fd"/>
      </g>
    </g>
    <g id="artificial-intelligence-ai" transform="translate(193 447)">
      <path id="Path_32" data-name="Path 32" d="M217.057,254.154a10.349,10.349,0,0,0-7.648,0,9.639,9.639,0,0,0-3.145,2.051l-.075.049a8.815,8.815,0,0,0-1.358,1.66,10.069,10.069,0,0,0-.579,1.025H188.377V245.561A35.051,35.051,0,0,1,180.805,248c-.453.1-.881.171-1.333.244v14.989a4.236,4.236,0,0,0,1.308,3.052,4.5,4.5,0,0,0,3.145,1.269H204.4a8.132,8.132,0,0,0,.528.879,9.506,9.506,0,0,0,1.208,1.44l.075.073a9.943,9.943,0,0,0,3.245,2.1,10.429,10.429,0,0,0,3.824.732,10.115,10.115,0,0,0,3.748-.708l.075-.024a10.215,10.215,0,0,0,3.245-2.1,9.542,9.542,0,0,0,2.918-6.86,9.793,9.793,0,0,0-.755-3.711,9.609,9.609,0,0,0-2.164-3.149,11.14,11.14,0,0,0-3.3-2.075Zm-72.579-91.545H125.862l-2.667,8.5H106.44l20-51.558H144.4L164.327,171.1H147.145l-2.667-8.5Zm-3.472-11.181L135.195,132.9l-5.836,18.529Zm27.95-31.907h16.478V171.08H168.956V119.522ZM156.4,66.669a28.574,28.574,0,0,0-7.421,7.787,1.146,1.146,0,0,1-.428.415,1.507,1.507,0,0,1-2.013-.415,28.574,28.574,0,0,0-7.421-7.787,24.139,24.139,0,0,0-9.308-3.979h-.05a26.1,26.1,0,0,0-9.535-.1,29.284,29.284,0,0,0-9.359,3.344,30,30,0,0,0-7.547,6.079,25.42,25.42,0,0,0-4.805,7.836h0c-.176.439-.327.9-.478,1.391-.126.439-.277.928-.377,1.416a1.419,1.419,0,0,1-1.384,1.123,28.047,28.047,0,0,0-9.836,3.467,33.543,33.543,0,0,0-8.654,7.3,36.566,36.566,0,0,0-6.138,10.4,37.591,37.591,0,0,0-2.44,11.962c-.025.561-.025,1.1-.025,1.66,0,.513.025,1.05.025,1.611a1.414,1.414,0,0,1-.6,1.245,52.055,52.055,0,0,0-5.585,4.467,40.289,40.289,0,0,0-4.453,4.907,31.781,31.781,0,0,0-4.654,8.544,28.279,28.279,0,0,0-.428,17.821,31.923,31.923,0,0,0,3.849,8.227h0a38.082,38.082,0,0,0,3.22,4.321,42.1,42.1,0,0,0,3.925,3.955,1.429,1.429,0,0,1,.453,1.318,32.1,32.1,0,0,0-.679,5.493,32.785,32.785,0,0,0,.3,5.468,32.189,32.189,0,0,0,2.843,9.277,34.971,34.971,0,0,0,5.585,8.349,36.651,36.651,0,0,0,7.195,6.25,34.8,34.8,0,0,0,8.3,4.077,30.756,30.756,0,0,0,3.925,1,24.889,24.889,0,0,0,3.748.439,1.445,1.445,0,0,1,1.459,1.123,23.912,23.912,0,0,0,3.522,8.1,28.352,28.352,0,0,0,6.44,6.787A29.753,29.753,0,0,0,118.39,236.5a26.106,26.106,0,0,0,11.421.293,24.712,24.712,0,0,0,9.811-4.345,29.147,29.147,0,0,0,7.623-8.471,1.3,1.3,0,0,1,.579-.513,1.478,1.478,0,0,1,1.962.586,26.283,26.283,0,0,0,6.491,7.861,23.762,23.762,0,0,0,8.7,4.394,26.548,26.548,0,0,0,12.076.244,31.854,31.854,0,0,0,11.95-5.151,30.2,30.2,0,0,0,7.22-6.982,24.987,24.987,0,0,0,4.05-8.276A1.422,1.422,0,0,1,201.459,215a28,28,0,0,0,10.692-4.345,34.252,34.252,0,0,0,8.881-8.642,36.789,36.789,0,0,0,5.308-10.985,37.887,37.887,0,0,0,1.459-12.206,1.345,1.345,0,0,1,.629-1.269,50.427,50.427,0,0,0,5.786-4.492,38.593,38.593,0,0,0,4.579-5h0a31.107,31.107,0,0,0,4.528-8.178,28.518,28.518,0,0,0,1.711-8.813A29.3,29.3,0,0,0,244,142.591a31.866,31.866,0,0,0-3.472-8.08l-.05-.049a37.812,37.812,0,0,0-3.5-4.858,40.751,40.751,0,0,0-4.377-4.419,1.409,1.409,0,0,1-.478-1.343,31.651,31.651,0,0,0,.654-5.029,32.764,32.764,0,0,0-.151-4.98,31.826,31.826,0,0,0-2.667-9.618,35.363,35.363,0,0,0-5.585-8.666,37.79,37.79,0,0,0-7.321-6.469,34.042,34.042,0,0,0-8.4-4.174l-.075-.024a29.027,29.027,0,0,0-4.629-1.123h-.05a25.577,25.577,0,0,0-4.5-.317,1.454,1.454,0,0,1-1.509-1.074,23.523,23.523,0,0,0-.956-2.929,27.48,27.48,0,0,0-1.384-2.881,26.806,26.806,0,0,0-5.233-6.616,30.66,30.66,0,0,0-7.195-4.956,28.658,28.658,0,0,0-8.654-2.661,26.1,26.1,0,0,0-8.7.244,26.678,26.678,0,0,0-9.359,4.1Zm41.132,27.488a1.488,1.488,0,0,1,1.308-1,14.314,14.314,0,0,1,3.22.146,20.542,20.542,0,0,1,3.321.806A24.605,24.605,0,0,1,211.5,97.16a27.05,27.05,0,0,1,5.283,4.687l.025.049a25.519,25.519,0,0,1,4.05,6.274,22.658,22.658,0,0,1,1.912,6.86,22.217,22.217,0,0,1-.025,5,21.838,21.838,0,0,1-1.132,4.858l-.025.1a4.7,4.7,0,0,0,0,3.051,4.781,4.781,0,0,0,1.937,2.441l.075.049a31.5,31.5,0,0,1,4.679,4.126,28.22,28.22,0,0,1,3.623,4.76,22.3,22.3,0,0,1,2.491,5.688,18.75,18.75,0,0,1-.453,11.791,22.222,22.222,0,0,1-3.094,5.542l-.025.024a29.49,29.49,0,0,1-4.629,4.785,43.143,43.143,0,0,1-6.138,4.2l-.075.049a4.65,4.65,0,0,0-2.013,2.2,4.721,4.721,0,0,0-.327,2.881l.025.2a29.235,29.235,0,0,1-.528,10.546,27.113,27.113,0,0,1-4.277,9.423,25.063,25.063,0,0,1-5.031,5.273,19.328,19.328,0,0,1-6.013,3.2h-.025a1.473,1.473,0,0,1-1.811-.928c-2.843-9.008-7.748-11.913-16.05-16.063l-.176-.1a4.979,4.979,0,0,0-3.547-.244,4.474,4.474,0,0,0-2.692,2.2l-.075.146a4.572,4.572,0,0,0-.252,3.442,4.7,4.7,0,0,0,2.34,2.661c6.943,3.442,12.075,6.054,12,14.5a13.891,13.891,0,0,1-2.189,7.153,21.359,21.359,0,0,1-5.887,6.079,22.313,22.313,0,0,1-8,3.564,16.931,16.931,0,0,1-8.05-.049,14.56,14.56,0,0,1-9.132-7.446,38.144,38.144,0,0,1-3.547-10.546,1.045,1.045,0,0,1-.05-.391c0-1.758-1.409-2.905-3.245-3.418a8.858,8.858,0,0,0-2.541-.342,9.659,9.659,0,0,0-2.541.342c-1.811.537-3.22,1.684-3.22,3.418a1.6,1.6,0,0,1-.05.342,32.318,32.318,0,0,1-5.836,12.426,16.233,16.233,0,0,1-9.434,6.005,16.92,16.92,0,0,1-7.421-.244,20.753,20.753,0,0,1-7.069-3.418,18.541,18.541,0,0,1-5.031-5.688,13.825,13.825,0,0,1-1.836-6.713c0-8.886,5.535-11.864,12.855-15.5a4.7,4.7,0,0,0,2.34-2.661,4.534,4.534,0,0,0-.277-3.515,4.764,4.764,0,0,0-2.742-2.27,4.978,4.978,0,0,0-3.547.244l-.075.024c-8.629,4.272-13.786,7.4-16.881,16.7a1.483,1.483,0,0,1-1.459,1.05,15.907,15.907,0,0,1-2.591-.293,17.323,17.323,0,0,1-2.516-.684,25.673,25.673,0,0,1-5.987-2.954,27.4,27.4,0,0,1-5.208-4.541,25.733,25.733,0,0,1-4.05-6.054,23.093,23.093,0,0,1-2.063-6.616v-.049a20.833,20.833,0,0,1-.1-5.322,22.456,22.456,0,0,1,1.182-5.249l.025-.073a4.646,4.646,0,0,0,.025-2.978l-.025-.049a4.781,4.781,0,0,0-1.887-2.441l-.05-.049a30.69,30.69,0,0,1-4.352-3.784,27.822,27.822,0,0,1-3.421-4.345,23.668,23.668,0,0,1-2.667-5.786,20.172,20.172,0,0,1-.855-6.005,19.04,19.04,0,0,1,1.157-6.274,22.815,22.815,0,0,1,3.245-5.883,29.945,29.945,0,0,1,4.553-4.785,41.98,41.98,0,0,1,5.962-4.248,4.77,4.77,0,0,0,1.836-1.953l.025-.073a4.448,4.448,0,0,0,.428-2.612,1.154,1.154,0,0,1-.025-.293v-.049c-.126-.854-.2-1.709-.252-2.539-.05-.9-.05-1.806-.025-2.685a28.145,28.145,0,0,1,1.786-8.91,27.068,27.068,0,0,1,4.528-7.739,23.418,23.418,0,0,1,5.132-4.565,18.769,18.769,0,0,1,5.761-2.539h0a1.472,1.472,0,0,1,1.811.928,23.348,23.348,0,0,0,7.27,11.181l.151.122a4.7,4.7,0,0,0,3.321,1.172,4.626,4.626,0,0,0,3.195-1.416l.075-.1a4.4,4.4,0,0,0,1.208-3.222,4.582,4.582,0,0,0-1.509-3.174,13.63,13.63,0,0,1-4.6-7.128,13.157,13.157,0,0,1,.151-8.959,16.05,16.05,0,0,1,3.22-5.175,19.714,19.714,0,0,1,4.931-3.955l.075-.049a19.781,19.781,0,0,1,6.113-2.246,16.357,16.357,0,0,1,6.164.024,15.84,15.84,0,0,1,8.176,4.589,26.51,26.51,0,0,1,5.66,9.35l.025.049c.528,1.587,2.239,2.514,4.252,2.881a11.856,11.856,0,0,0,2.792.171h.025a10.894,10.894,0,0,0,2.717-.488c1.509-.488,2.692-1.269,2.969-2.27v-.561c0-2.832,1.736-5.834,4.126-8.3a19.106,19.106,0,0,1,9.057-5.4,16.525,16.525,0,0,1,5.585-.122,19.409,19.409,0,0,1,5.535,1.733l.151.049a20.642,20.642,0,0,1,4.855,3.32A18.226,18.226,0,0,1,187.245,81a13.417,13.417,0,0,1,1.635,8.593c-.4,2.71-.5,4.419-2.843,7.128l-.025.024a4.445,4.445,0,0,0,.478,6.323l.151.122a4.749,4.749,0,0,0,3.371,1,4.667,4.667,0,0,0,3.094-1.514l.126-.171c2.415-2.783,3.195-4.834,4.3-8.349ZM252.78,213.63a9.5,9.5,0,0,1,0-7.421,9.322,9.322,0,0,1,2.113-3.052l.05-.073a9,9,0,0,1,1.711-1.318,10.559,10.559,0,0,1,1.057-.561V185.8H238.189c.025-1,.025-2-.025-3.027a1.531,1.531,0,0,1,.7-1.44,54.847,54.847,0,0,0,5.509-4.174h17.761a4.5,4.5,0,0,1,3.145,1.269,4.236,4.236,0,0,1,1.308,3.052v19.871a8.5,8.5,0,0,1,.906.513,9.682,9.682,0,0,1,1.484,1.172l.075.073a9.543,9.543,0,0,1,2.918,6.86,9.4,9.4,0,0,1-.73,3.637l-.025.073a9.8,9.8,0,0,1-5.409,5.249,10.428,10.428,0,0,1-3.824.732,10.633,10.633,0,0,1-3.824-.732,9.942,9.942,0,0,1-3.245-2.1,10.744,10.744,0,0,1-2.138-3.2ZM281.057,164.2H254.516c.453-.952.855-1.9,1.208-2.881a29.96,29.96,0,0,0,1.509-5.761h23.824c.176-.317.352-.635.553-.952a9.108,9.108,0,0,1,1.308-1.587,9.814,9.814,0,0,1,3.245-2.1,10.429,10.429,0,0,1,3.824-.732,10.213,10.213,0,0,1,3.748.708l.075.024a10.215,10.215,0,0,1,3.245,2.1,9.542,9.542,0,0,1,2.918,6.86,9.792,9.792,0,0,1-.755,3.711,9.609,9.609,0,0,1-2.164,3.149,9.943,9.943,0,0,1-3.245,2.1,10.429,10.429,0,0,1-3.824.732,10.214,10.214,0,0,1-3.748-.708l-.075-.024a10.215,10.215,0,0,1-3.245-2.1,9.59,9.59,0,0,1-1.283-1.538l-.05-.073c-.176-.293-.352-.61-.528-.928Zm8.453-23.631H256.126a37.422,37.422,0,0,0-3.572-7.934l-.05-.073c-.126-.22-.252-.415-.377-.635h32.956v-28.2c-.252-.146-.5-.293-.755-.464a10.16,10.16,0,0,1-1.384-1.123,9.514,9.514,0,0,1-2.163-10.57,9.8,9.8,0,0,1,5.409-5.249,10.428,10.428,0,0,1,3.824-.732,10.633,10.633,0,0,1,3.824.732,9.943,9.943,0,0,1,3.245,2.1A9.542,9.542,0,0,1,300,95.28a9.4,9.4,0,0,1-.73,3.637l-.025.073a9.871,9.871,0,0,1-2.164,3.149,10.867,10.867,0,0,1-1.887,1.44,11.12,11.12,0,0,1-1.208.61v32.029a4.236,4.236,0,0,1-1.308,3.051,4.519,4.519,0,0,1-3.17,1.294Zm-34.893-20.848H243.245a35.113,35.113,0,0,0,.553-4.834c.05-1.294.05-2.563-.025-3.808h6.39V98.332a8.075,8.075,0,0,1-1.006-.561,9.457,9.457,0,0,1-1.686-1.318h0a9.543,9.543,0,0,1-2.918-6.835,9.792,9.792,0,0,1,.755-3.711A10.036,10.036,0,0,1,247.4,82.83l.075-.073a9.943,9.943,0,0,1,3.245-2.1,10.349,10.349,0,0,1,7.648,0,10.024,10.024,0,0,1,3.17,2.051l.075.049a9.492,9.492,0,0,1,2.138,3.076l.025.073a9.5,9.5,0,0,1,0,7.421,10.036,10.036,0,0,1-2.088,3.076l-.075.073A10.371,10.371,0,0,1,260,97.746a6.864,6.864,0,0,1-.931.513V115.4a4.236,4.236,0,0,1-1.308,3.052,4.544,4.544,0,0,1-3.145,1.269Zm-176.3-73.9a10.349,10.349,0,0,0,7.648,0,9.639,9.639,0,0,0,3.145-2.051l.075-.049a8.814,8.814,0,0,0,1.359-1.66,10.07,10.07,0,0,0,.579-1.025h15.874v13.3a33.73,33.73,0,0,1,8.906-3.1V36.716a4.236,4.236,0,0,0-1.308-3.052,4.5,4.5,0,0,0-3.145-1.269H90.969a8.132,8.132,0,0,0-.528-.879,9.506,9.506,0,0,0-1.208-1.44L89.157,30a9.943,9.943,0,0,0-3.245-2.1,10.429,10.429,0,0,0-3.824-.732,10.116,10.116,0,0,0-3.748.708l-.075.024A10.215,10.215,0,0,0,75.019,30a9.542,9.542,0,0,0-2.918,6.86,9.792,9.792,0,0,0,.755,3.711,9.609,9.609,0,0,0,2.164,3.149,11.042,11.042,0,0,0,3.3,2.1Zm50.969-27.439V51.729a28.009,28.009,0,0,1,8.579,4.052l.3.22c0-.073.025-.146.025-.22v-37.4c.327-.171.654-.342.981-.537a9.286,9.286,0,0,0,1.635-1.269,9.871,9.871,0,0,0,2.164-3.149,9.6,9.6,0,0,0,.755-3.711,9.4,9.4,0,0,0-.73-3.637l-.025-.073A9.8,9.8,0,0,0,137.56.757a10.429,10.429,0,0,0-3.824-.732,10.633,10.633,0,0,0-3.824.732,9.943,9.943,0,0,0-3.245,2.1,9.542,9.542,0,0,0-2.918,6.86,9.4,9.4,0,0,0,.73,3.637l.025.073a9.871,9.871,0,0,0,2.164,3.149,9.77,9.77,0,0,0,1.585,1.245l.05.024c.327.2.629.366.981.537Zm24.327-8.2V58.955a30.229,30.229,0,0,1,3.8-3.174,26.887,26.887,0,0,1,5.107-2.832V14.476h29.057c.151.244.3.488.478.732a9.93,9.93,0,0,0,4.4,3.442,10.429,10.429,0,0,0,3.824.732,10.53,10.53,0,0,0,3.824-.732,9.943,9.943,0,0,0,3.245-2.1,9.542,9.542,0,0,0,2.918-6.86,9.792,9.792,0,0,0-.755-3.711,9.61,9.61,0,0,0-2.164-3.149,10.735,10.735,0,0,0-3.3-2.1,10.4,10.4,0,0,0-3.8-.732A10.214,10.214,0,0,0,196.5.708l-.075.024a10.215,10.215,0,0,0-3.245,2.1A10.641,10.641,0,0,0,191.7,4.663a10.562,10.562,0,0,0-.629,1.172H158.063A4.5,4.5,0,0,0,154.918,7.1a4.334,4.334,0,0,0-1.308,3.076Zm21.484,33.86v6.689a26.054,26.054,0,0,1,2.742.269A31.086,31.086,0,0,1,184,52.51V48.385h13.132a7.712,7.712,0,0,0,.579.976A9.278,9.278,0,0,0,199.069,51h0a9.943,9.943,0,0,0,3.245,2.1,10.4,10.4,0,0,0,3.8.732,10.634,10.634,0,0,0,3.824-.732,10.4,10.4,0,0,0,3.17-2.026l.075-.073a9.476,9.476,0,0,0,.05-13.646l-.05-.073a9.813,9.813,0,0,0-3.17-2.075l-.075-.024A10.217,10.217,0,0,0,199.12,37.2l-.075.073a10.182,10.182,0,0,0-1.308,1.562,6.555,6.555,0,0,0-.528.9h-17.66a4.5,4.5,0,0,0-3.145,1.269,4.139,4.139,0,0,0-1.308,3.027ZM47.22,85.931a9.5,9.5,0,0,1,0,7.421A9.321,9.321,0,0,1,45.107,96.4l-.05.073a9,9,0,0,1-1.711,1.318,10.568,10.568,0,0,1-1.057.561v15.4H58.767v.757c0,.586.025,1.2.05,1.831a1.57,1.57,0,0,1-.679,1.416,57.092,57.092,0,0,0-5.862,4.638H37.887a4.5,4.5,0,0,1-3.145-1.269,4.236,4.236,0,0,1-1.308-3.052V98.21a8.5,8.5,0,0,1-.906-.513,9.682,9.682,0,0,1-1.484-1.172l-.075-.073a9.542,9.542,0,0,1-2.918-6.86,9.4,9.4,0,0,1,.73-3.637l.025-.073a9.8,9.8,0,0,1,5.409-5.249,10.429,10.429,0,0,1,3.824-.732,10.633,10.633,0,0,1,3.824.732,9.943,9.943,0,0,1,3.245,2.1,11.165,11.165,0,0,1,2.113,3.2ZM18.943,135.365H42.591c-.4.879-.755,1.782-1.082,2.661A31.84,31.84,0,0,0,40,143.982H18.943c-.176.317-.352.635-.553.952a9.105,9.105,0,0,1-1.308,1.587,9.814,9.814,0,0,1-3.245,2.1,10.429,10.429,0,0,1-3.824.732,10.213,10.213,0,0,1-3.748-.708l-.075-.024a10.215,10.215,0,0,1-3.245-2.1,9.542,9.542,0,0,1-2.918-6.86,9.792,9.792,0,0,1,.755-3.711A9.609,9.609,0,0,1,2.943,132.8a9.943,9.943,0,0,1,3.245-2.1,10.429,10.429,0,0,1,3.824-.732,10.213,10.213,0,0,1,3.748.708l.075.024a10.215,10.215,0,0,1,3.245,2.1,9.588,9.588,0,0,1,1.283,1.538l.05.073.528.952ZM10.491,159H41.258a36,36,0,0,0,4.1,8.52v.024l.05.1H14.918v28.2c.252.146.5.293.755.464a10.156,10.156,0,0,1,1.384,1.123,9.514,9.514,0,0,1,2.164,10.57,9.8,9.8,0,0,1-5.409,5.249,10.428,10.428,0,0,1-3.824.732,10.633,10.633,0,0,1-3.824-.732,9.943,9.943,0,0,1-3.245-2.1,10.97,10.97,0,0,1-2.164-3.2A9.6,9.6,0,0,1,0,204.231a9.4,9.4,0,0,1,.73-3.637l.025-.073a9.872,9.872,0,0,1,2.164-3.149,10.869,10.869,0,0,1,1.887-1.44,11.131,11.131,0,0,1,1.208-.61V163.292a4.236,4.236,0,0,1,1.308-3.052A4.7,4.7,0,0,1,10.491,159Zm34.893,20.848h8.3a34.654,34.654,0,0,0-.478,4.76,33.107,33.107,0,0,0,.075,3.882H49.836v12.743a8.073,8.073,0,0,1,1.006.561,9.459,9.459,0,0,1,1.686,1.318h0a9.514,9.514,0,0,1,2.164,10.57,10.037,10.037,0,0,1-2.088,3.076l-.075.073a9.943,9.943,0,0,1-3.245,2.1,10.349,10.349,0,0,1-7.648,0,10.023,10.023,0,0,1-3.17-2.051l-.075-.049a9.492,9.492,0,0,1-2.138-3.076l-.025-.073a9.5,9.5,0,0,1,0-7.421,10.036,10.036,0,0,1,2.088-3.076l.075-.073A10.37,10.37,0,0,1,40,201.839a6.864,6.864,0,0,1,.931-.513V184.189a4.236,4.236,0,0,1,1.308-3.052,4.316,4.316,0,0,1,3.145-1.294Zm120.73,101.75V247.441a26.221,26.221,0,0,1-8.83-4.663l-.05-.049v38.888c-.327.171-.654.342-.981.537a9.289,9.289,0,0,0-1.635,1.269,9.872,9.872,0,0,0-2.164,3.149,9.605,9.605,0,0,0-.755,3.711,9.4,9.4,0,0,0,.73,3.637l.025.073a9.8,9.8,0,0,0,5.409,5.249,10.429,10.429,0,0,0,3.824.732,10.633,10.633,0,0,0,3.824-.732,9.943,9.943,0,0,0,3.245-2.1,9.542,9.542,0,0,0,2.918-6.86,9.4,9.4,0,0,0-.73-3.637l-.025-.073a9.872,9.872,0,0,0-2.164-3.149,9.768,9.768,0,0,0-1.585-1.245l-.075-.049c-.327-.2-.654-.366-.981-.537Zm-24.352,8.2V240.581a29.725,29.725,0,0,1-3.321,2.832,27.773,27.773,0,0,1-5.585,3.2v38.913H103.8c-.151-.244-.3-.488-.478-.732a9.93,9.93,0,0,0-4.4-3.442,10.349,10.349,0,0,0-7.648,0,10.215,10.215,0,0,0-3.245,2.1,9.542,9.542,0,0,0-2.918,6.86,9.792,9.792,0,0,0,.755,3.711,9.609,9.609,0,0,0,2.164,3.149,9.943,9.943,0,0,0,3.245,2.1,10.429,10.429,0,0,0,3.824.732,10.213,10.213,0,0,0,3.748-.708l.075-.024a10.215,10.215,0,0,0,3.245-2.1,9.791,9.791,0,0,0,2.113-3h33.006a4.5,4.5,0,0,0,3.145-1.269,4.354,4.354,0,0,0,1.333-3.1Zm-21.484-33.86v-7.1a31.448,31.448,0,0,1-5.836-.854c-1.031-.244-2.063-.561-3.069-.9v4.565H98.239a7.717,7.717,0,0,0-.579-.977,9.278,9.278,0,0,0-1.358-1.636h0a9.942,9.942,0,0,0-3.245-2.1,10.4,10.4,0,0,0-3.8-.732,10.634,10.634,0,0,0-3.824.732,10.4,10.4,0,0,0-3.17,2.026l-.075.049a9.476,9.476,0,0,0-.05,13.646l.05.073a9.813,9.813,0,0,0,3.17,2.075l.075.024a10.429,10.429,0,0,0,3.824.732,10.633,10.633,0,0,0,3.824-.732,10.4,10.4,0,0,0,3.17-2.026l.075-.073a10.186,10.186,0,0,0,1.308-1.562,6.555,6.555,0,0,0,.528-.9h17.66a4.5,4.5,0,0,0,3.145-1.269,4.236,4.236,0,0,0,1.308-3.052Z" fill="#10eea9"/>
    </g>
  </g>
</svg>
